HIERARCHY
ROOT hip
{
	OFFSET 0.000000 0.000000 0.000000 
	CHANNELS 6 Xposition Yposition Zposition Xrotation Zrotation Yrotation
	JOINT abdomen
	{
		OFFSET 0.000000 3.402643 0.000000 
		CHANNELS 3 Xrotation Zrotation Yrotation
		JOINT chest
		{
			OFFSET 0.000000 8.438565 -0.680529 
			CHANNELS 3 Xrotation Zrotation Yrotation
			JOINT neck
			{
				OFFSET 0.000000 10.207942 -0.272212 
				CHANNELS 3 Xrotation Zrotation Yrotation
				JOINT head
				{
					OFFSET 0.000000 3.130431 0.000000 
					CHANNELS 3 Xrotation Zrotation Yrotation
					End Site
					{
						OFFSET 0.000000 3.130435 0.000000 
					}
				}
			}
			JOINT lCollar
			{
				OFFSET 3.470700 6.669187 -0.816635 
				CHANNELS 3 Yrotation Zrotation Xrotation
				JOINT lShldr
				{
					OFFSET 3.198488 0.000000 0.000000 
					CHANNELS 3 Zrotation Yrotation Xrotation
					JOINT lForeArm
					{
						OFFSET 10.139888 0.000000 0.000000 
						CHANNELS 3 Yrotation Zrotation Xrotation
						JOINT lHand
						{
							OFFSET 8.370511 0.000000 0.000000 
							CHANNELS 3 Zrotation Yrotation Xrotation
							End Site
							{
								OFFSET 4.083176 0.000000 0.000000 
							}
						}
					}
				}
			}
			JOINT rCollar
			{
				OFFSET -3.470700 6.669187 -0.816635 
				CHANNELS 3 Yrotation Zrotation Xrotation
				JOINT rShldr
				{
					OFFSET -3.198488 0.000000 0.000000 
					CHANNELS 3 Zrotation Yrotation Xrotation
					JOINT rForeArm
					{
						OFFSET -10.139888 0.000000 0.000000 
						CHANNELS 3 Yrotation Zrotation Xrotation
						JOINT rHand
						{
							OFFSET -8.370511 0.000000 0.000000 
							CHANNELS 3 Zrotation Yrotation Xrotation
							End Site
							{
								OFFSET -4.083176 0.000000 0.000000 
							}
						}
					}
				}
			}
		}
	}
	JOINT lThigh
	{
		OFFSET 5.308129 -1.633274 1.361059 
		CHANNELS 3 Xrotation Zrotation Yrotation
		JOINT lShin
		{
			OFFSET -2.041588 -20.007561 0.000000 
			CHANNELS 3 Xrotation Zrotation Yrotation
			JOINT lFoot
			{
				OFFSET 0.000000 -19.190928 -1.224953 
				CHANNELS 3 Xrotation Yrotation Zrotation
				End Site
				{
					OFFSET 0.000000 -2.449906 4.627600 
				}
			}
		}
	}
	JOINT rThigh
	{
		OFFSET -5.308129 -1.633274 1.361059 
		CHANNELS 3 Xrotation Zrotation Yrotation
		JOINT rShin
		{
			OFFSET 2.041588 -20.007561 0.000000 
			CHANNELS 3 Xrotation Zrotation Yrotation
			JOINT rFoot
			{
				OFFSET 0.000000 -19.190928 -1.224953 
				CHANNELS 3 Xrotation Yrotation Zrotation
				End Site
				{
					OFFSET 0.000000 -2.449906 4.627600 
				}
			}
		}
	}
}
MOTION
Frames: 8
Frame Time: 0.033333
0.588335 49.449108 1.434965 0.166016 0.019531 -0.234315 0.000000 0.000000 0.000000 -1.679690 0.087853 0.026721 6.191471 0.133355 0.074624 6.123010 -0.312207 0.140478 -0.541121 10.339715 -0.937296 -13.606375 1.813254 -18.190086 -3.303302 -6.817284 18.473055 15.343586 -5.166223 -4.519603 0.967958 -9.732894 -0.923087 10.151385 -7.876686 -25.740589 0.035891 5.275568 13.598062 -14.627842 8.253880 -4.824911 4.716109 11.044147 8.053909 6.446190 -2.281600 5.473133 -8.772311 0.301067 -3.903266 6.874413 -11.494127 -11.577192 -0.098038 2.554510 -0.140000 -4.550427 -0.236542 5.752429 
0.562537 49.444454 1.483367 0.292969 -0.107420 -0.244708 0.000000 0.000000 0.000000 -1.806647 0.156172 0.043902 6.250013 0.129293 0.082597 6.025365 -0.253649 0.099312 -0.606619 10.156746 -1.049950 -13.114643 1.712681 -18.037521 -2.747727 -7.029691 18.451916 15.583791 -5.226943 -4.549227 1.038168 -9.599990 -1.032920 9.983798 -7.996530 -25.616201 0.045328 5.291789 13.646380 -14.462084 8.275682 -4.807818 4.995468 11.165213 8.185473 5.802930 -2.291650 5.598534 -8.485255 0.316611 -4.226109 6.825712 -11.357762 -11.478212 -0.086325 2.593281 -0.178731 -4.636724 -0.235364 5.796838 
0.551590 49.444454 1.527863 0.419923 -0.136715 -0.235400 0.000000 0.000000 0.000000 -1.953132 0.156159 0.053268 6.259696 0.057642 0.110252 6.025391 0.009756 0.038623 -0.675735 10.081953 -1.173935 -13.000872 1.761494 -18.208050 -2.722870 -6.876236 18.722141 15.335257 -5.186418 -4.519184 1.125331 -9.604655 -1.152953 10.014533 -8.152697 -25.599691 0.043096 5.263458 13.782434 -14.425790 8.317476 -4.807495 5.017069 11.187900 8.198264 5.596236 -2.281094 5.659786 -8.413029 0.321607 -4.276626 6.775917 -11.326559 -11.502270 -0.175807 2.636862 -0.214683 -4.630031 -0.247495 5.674907 
0.541269 49.449612 1.564208 0.498049 -0.166009 -0.187018 0.000000 0.000000 0.000000 -2.011726 0.156154 0.043343 6.152260 0.041291 0.126661 6.357417 0.117097 0.024704 -0.615270 10.100937 -1.231879 -12.910650 1.616351 -18.163454 -2.718484 -6.983238 18.281471 15.331960 -5.274786 -4.528533 1.025581 -9.623448 -1.226689 10.082510 -8.073959 -25.602373 0.047519 5.292712 13.480541 -14.491896 8.146233 -4.798405 5.202484 11.178936 8.203059 5.116619 -2.232336 5.777578 -8.175891 0.320161 -4.403310 6.790944 -11.261789 -11.554488 -0.253108 2.716101 -0.337774 -4.623363 -0.231039 5.490940 
0.539507 49.444828 1.592572 0.605473 -0.224597 -0.197724 0.000000 0.000000 0.000000 -2.089853 0.165905 0.081837 5.957103 0.165706 0.144949 6.894526 -0.136658 0.101734 -0.571978 10.178656 -1.299736 -12.949894 1.645270 -18.155876 -2.944282 -6.958904 18.256433 15.287429 -5.336799 -4.537093 0.939446 -9.437489 -1.299716 9.966404 -7.965761 -25.780910 0.046002 5.231623 13.518421 -14.307734 8.051847 -4.771095 5.191406 11.224488 8.227956 5.043741 -2.243999 5.713035 -8.220499 0.322620 -4.467152 6.713175 -11.194235 -11.473612 -0.273717 2.712733 -0.397986 -4.638485 -0.242941 5.486132 
0.535857 49.444702 1.619175 0.634771 -0.224596 -0.266198 0.000000 0.000000 0.000000 -2.119148 0.146384 0.092240 5.839983 0.173987 0.137288 7.451154 -0.322200 0.133434 -0.445813 10.205324 -1.340768 -13.107463 1.603540 -18.270838 -3.075817 -6.771538 18.530142 15.412585 -5.435345 -4.562612 1.107421 -9.324917 -1.313696 9.860168 -8.073645 -25.825367 0.045661 5.202964 13.508128 -14.243757 8.252302 -4.788525 4.969801 11.269294 8.185908 5.527565 -2.241670 5.645562 -8.510663 0.315725 -4.280497 6.685682 -11.168099 -11.379839 -0.243801 2.627455 -0.394005 -4.700152 -0.245170 5.624037 
0.524157 49.452755 1.652083 0.673835 -0.253889 -0.208107 0.000000 0.000000 0.000000 -2.128911 0.117107 0.122600 5.635141 0.227242 0.022516 7.998016 -0.576140 0.093979 -0.336696 10.485839 -1.352371 -13.485097 1.433623 -18.210329 -3.153505 -6.754326 18.609518 15.590611 -5.451662 -4.570170 0.791066 -9.024323 -1.343908 9.591703 -7.911023 -25.702991 0.044323 5.269119 13.694736 -14.117162 8.271232 -4.773099 5.192388 11.275696 8.253515 5.035866 -2.254919 5.635192 -8.288364 0.308305 -4.335057 6.742866 -11.116726 -11.395066 -0.361224 2.669958 -0.509479 -4.663168 -0.239585 5.519750 
0.514088 49.452133 1.680347 0.693365 -0.234358 -0.081001 0.000000 0.000000 0.000000 -2.167970 0.058552 0.075908 5.527684 0.241129 0.042757 8.447252 -0.751950 0.197363 -0.592534 10.532249 -1.379391 -13.582065 1.737213 -17.953875 -3.234748 -6.837041 18.499468 15.644898 -5.388921 -4.572671 0.670388 -8.904481 -1.398228 9.493915 -7.941060 -25.708109 0.037928 5.212137 14.123832 -13.901474 8.149690 -4.742998 5.613265 11.238506 8.311971 4.210483 -2.260784 5.605098 -7.908556 0.325536 -4.537053 6.795383 -11.111537 -11.405430 -0.341768 2.650481 -0.615304 -4.732835 -0.249516 5.559090 
